<svg xmlns="http://www.w3.org/2000/svg" viewBox="0 0 655 683" width="655" height="683">
	<style>
		tspan { white-space:pre }
		.shp0 { fill: #5e5e5e } 
		.shp1 { opacity: 0.102;fill: #000000 } 
		.shp2 { fill: #ffffff } 
		.shp3 { fill: #575a89 } 
		.shp4 { fill: #a0616a } 
		.shp5 { fill: #785633 } 
		.shp6 { fill: #2f2e41 } 
		.shp7 { fill: #fafaff } 
		.shp8 { fill: #f2f2f2 } 
		.shp9 { fill: #565567 } 
		.shp10 { fill: #b4b4b7 } 
	</style>
	<path id="Layer" class="shp0" d="M620 635.61C620 661.29 481.21 682.11 310 682.11C138.79 682.11 0 661.29 0 635.61C0 617.43 69.57 601.68 170.96 594.04C212.77 590.88 260.01 589.11 310 589.11C330.55 589.11 350.63 589.41 370.05 589.98C512.52 594.18 620 613.01 620 635.61Z" />
	<path id="Layer" class="shp1" d="M270 645.11C204.19 645.11 151 638.63 151 630.61C151 622.6 204.19 616.11 270 616.11C335.81 616.11 389 622.6 389 630.61C389 638.63 335.81 645.11 270 645.11Z" />
	<path id="Layer" class="shp2" d="M269.5 641.11C207.29 641.11 157 587.47 157 521.11C157 454.75 207.29 401.11 269.5 401.11C331.71 401.11 382 454.75 382 521.11C382 587.47 331.71 641.11 269.5 641.11Z" />
	<path id="Layer" class="shp2" d="M235 592.11L305 592.11L305 656.11L235 656.11L235 592.11Z" />
	<path id="Layer" class="shp3" d="M396.5 607.61L392.5 629.61L418.5 633.61L435.5 623.61L434.5 607.61L396.5 607.61L396.5 607.61Z" />
	<path id="Layer" class="shp4" d="M265.5 194.61C265.5 194.61 263.5 217.61 258.5 218.61C253.5 219.61 269.5 259.61 269.5 259.61L293.5 259.61L312.5 254.61L303.5 232.61C303.5 232.61 291.5 216.61 300.5 203.61C309.5 190.61 265.5 194.61 265.5 194.61Z" />
	<path id="Layer" class="shp1" d="M265.5 194.61C265.5 194.61 263.5 217.61 258.5 218.61C253.5 219.61 269.5 259.61 269.5 259.61L293.5 259.61L312.5 254.61L303.5 232.61C303.5 232.61 291.5 216.61 300.5 203.61C309.5 190.61 265.5 194.61 265.5 194.61Z" />
	<path id="Layer" class="shp5" d="M215.5 370.61C215.5 370.61 189.5 420.61 210.5 430.61C231.5 440.61 236.5 439.61 236.5 442.61C236.5 445.61 232.5 444.61 234.5 449.61C236.5 454.61 230.5 474.61 236.5 486.61C242.5 498.61 240.5 507.61 240.5 507.61C240.5 507.61 240.5 508.61 242.5 512.61C244.5 516.61 245.5 519.61 244.5 521.61C243.5 523.61 237.5 536.61 243.5 539.61C249.5 542.61 280.5 544.61 283.5 539.61C286.5 534.61 280.5 531.61 283.5 528.61C286.5 525.61 288.5 524.61 286.5 522.61C284.5 520.61 282.5 495.61 282.5 495.61C282.5 495.61 287.5 466.61 285.5 462.61C283.5 458.61 280.5 454.61 282.5 451.61C284.5 448.61 286.5 449.61 287.5 445.61C288.5 441.61 290.5 432.61 290.5 432.61L301.5 431.61L327.5 436.61C327.5 436.61 356.5 468.61 388.5 478.61C388.5 478.61 397.5 487.61 400.5 487.61C403.5 487.61 403.5 487.61 402.5 489.61C401.5 491.61 398.5 491.61 400.5 493.61C402.5 495.61 405.5 492.61 403.5 495.61C401.5 498.61 399.5 498.61 401.5 500.61C403.5 502.61 400.5 513.61 400.5 514.61C400.5 515.61 391.5 609.61 394.5 611.61C397.5 613.61 439.5 619.61 442.5 611.61C445.5 603.61 440.5 593.61 440.5 593.61C440.5 593.61 455.5 473.61 451.5 465.61C447.5 457.61 433.5 421.61 358.5 398.61C358.5 398.61 337.5 394.61 337.5 391.61C337.5 388.61 335.5 369.61 331.5 368.61C327.5 367.61 304.5 366.61 304.5 366.61L275.5 375.61L235.5 368.61L215.5 370.61Z" />
	<path id="Layer" class="shp6" d="M250.5 538.61L245.5 556.61C245.5 556.61 241.5 585.61 246.5 592.61C250.43 598.11 257.44 604.84 270.44 606.03C272.25 606.19 274.08 606.05 275.84 605.61C277.6 605.16 279.28 604.42 280.79 603.42C282.3 602.42 283.64 601.16 284.73 599.71C285.83 598.26 286.67 596.64 287.22 594.91C287.26 594.8 287.29 594.7 287.32 594.59C287.35 594.49 287.38 594.38 287.4 594.27C287.43 594.16 287.45 594.05 287.46 593.94C287.48 593.83 287.49 593.72 287.5 593.61C287.5 591.61 284.5 567.61 284.5 567.61L279.5 542.61L278.5 535.61L250.5 538.61Z" />
	<path id="Layer" class="shp6" d="M396.5 624.61C396.5 624.61 391.5 619.61 390.5 624.61C389.5 629.61 385.5 650.61 392.5 651.61C399.5 652.61 466.5 662.61 473.5 658.61C480.5 654.61 493.5 648.61 485.5 645.61C477.5 642.61 454.5 633.61 454.5 633.61C454.5 633.61 441.5 616.61 439.5 615.61C437.5 614.61 426.5 616.61 421.5 620.61C416.5 624.61 396.5 624.61 396.5 624.61Z" />
	<path id="Layer" class="shp4" d="M289.5 215.61C272.36 215.61 258.5 201.76 258.5 184.61C258.5 167.47 272.36 153.61 289.5 153.61C306.64 153.61 320.5 167.47 320.5 184.61C320.5 201.76 306.64 215.61 289.5 215.61Z" />
	<path id="Layer" class="shp2" d="M286.5 254.61L274.5 241.61L261.2 215.61C261.2 215.61 251.5 212.61 249.5 217.61C247.5 222.61 211.5 238.61 211.5 238.61C211.5 238.61 220.5 322.61 216.5 330.61C212.5 338.61 205.5 370.61 211.5 373.61C217.5 376.61 245.5 373.61 254.5 377.61C263.5 381.61 289.5 381.61 296.5 376.61C303.5 371.61 305.5 367.61 312.5 370.61C318.46 373.17 332.39 285.85 336.4 259.83C336.57 258.75 336.59 257.64 336.45 256.55C336.31 255.46 336.02 254.39 335.59 253.38C335.16 252.36 334.59 251.42 333.9 250.56C333.2 249.71 332.39 248.95 331.49 248.32C322.52 242.03 306.36 231.18 303.5 232.61C299.5 234.61 286.5 254.61 286.5 254.61Z" />
	<path id="Layer" class="shp2" d="M329.5 250.61L329.5 250.61C330.67 250.91 331.78 251.37 332.81 252C333.84 252.63 334.76 253.41 335.55 254.31C336.35 255.22 336.99 256.24 337.48 257.34C337.96 258.44 338.28 259.61 338.41 260.81L346.5 333.61C346.5 333.61 326.5 376.61 316.5 347.61C306.5 318.61 329.5 250.61 329.5 250.61Z" />
	<path id="Layer" class="shp7" d="M327.5 340.61L349.5 334.61C349.5 334.61 353.5 362.61 357.5 362.61C361.5 362.61 343.5 378.61 334.5 376.61C325.5 374.61 312.5 367.61 311.5 362.61C310.5 357.61 320.5 336.61 320.5 336.61L327.5 340.61Z" />
	<path id="Layer" class="shp6" d="M266.1 197.99C268.21 193.34 267.84 187.92 269.58 183.12C270.52 180.55 272.03 178.23 274.01 176.35C275.98 174.46 278.37 173.06 280.98 172.25C283.59 171.43 286.35 171.24 289.05 171.67C291.75 172.1 294.31 173.15 296.54 174.74C298.78 176.34 301.03 178.58 303.76 178.28C306.71 177.95 309.34 174.66 312.05 175.87C315.05 177.2 314.24 182.58 317.28 183.83C318.88 184.48 320.77 183.47 321.7 182.01C321.9 181.63 322.08 181.23 322.23 180.83C322.39 180.43 322.52 180.02 322.63 179.6C322.74 179.18 322.82 178.75 322.88 178.33C322.94 177.9 322.97 177.47 322.98 177.03C323.4 172.77 323.78 168.26 321.93 164.39C321.74 164.06 321.55 163.73 321.37 163.4C321.19 163.06 321.01 162.72 320.84 162.38C320.67 162.04 320.51 161.7 320.35 161.35C320.2 161 320.05 160.65 319.9 160.3C319.82 159.97 319.75 159.64 319.7 159.3C319.64 158.97 319.6 158.63 319.56 158.3C319.53 157.96 319.51 157.62 319.5 157.28C319.5 156.94 319.5 156.6 319.52 156.27C319.5 151.25 319.14 146.02 316.61 141.69C313.81 136.88 308.64 133.81 303.24 132.47C297.84 131.13 292.18 131.33 286.64 131.8C277.48 132.58 267.92 134.24 260.7 139.94C260.46 140.12 260.22 140.31 259.99 140.51C259.77 140.71 259.55 140.92 259.34 141.14C259.13 141.36 258.93 141.58 258.74 141.82C258.55 142.06 258.38 142.3 258.21 142.56C258.05 142.86 257.9 143.17 257.77 143.48C257.63 143.79 257.51 144.11 257.4 144.43C257.29 144.75 257.19 145.07 257.1 145.4C257.02 145.73 256.94 146.06 256.88 146.4C256.49 147.99 256.05 149.56 255.57 151.12C255.08 152.68 254.54 154.23 253.96 155.75C253.38 157.28 252.75 158.79 252.08 160.28C251.4 161.77 250.68 163.23 249.91 164.68C249.55 165.29 249.19 165.91 248.86 166.54C248.52 167.17 248.21 167.81 247.91 168.46C247.61 169.11 247.32 169.77 247.06 170.43C246.79 171.09 246.55 171.76 246.32 172.44C245.55 175.2 245.6 178.33 247.21 180.7C248.51 182.63 250.6 183.66 252.24 185.23C253.86 186.79 254.62 189.8 256.42 190.98C257.99 192.01 259.87 191.28 261.47 192.38C263.53 193.78 263.68 196.86 266.1 197.99Z" />
	<path id="Layer" class="shp8" d="M291.5 269.61L294.5 263.61C294.5 263.61 338.5 276.61 347.5 288.61C347.5 288.61 369.5 274.61 381.5 276.61L393.5 278.61L356.5 311.61L309.5 307.61L291.5 269.61Z" />
	<path id="Layer" class="shp9" d="M289.5 263.61L248.5 320.61L307.5 349.61C307.5 349.61 313.02 352.61 317.26 349.61L356.5 331.61L393.5 278.61L356.5 297.61C356.5 297.61 352.5 289.61 344.5 293.61L289.5 263.61Z" />
	<path id="Layer" class="shp4" d="M352.5 364.61L360.5 343.61C360.5 343.61 378.5 320.61 368.5 309.61C358.5 298.61 347.5 341.61 347.5 341.61L352.5 364.61Z" />
	<path id="Layer" class="shp4" d="M260.2 361.26L277.65 347.11C277.65 347.11 304.76 336.25 301.63 321.71C298.5 307.18 267.41 338.86 267.41 338.86L260.2 361.26Z" />
	<path id="Layer" class="shp1" d="M217 260.11L216 260.11C216 260.11 200.5 241.61 197.5 266.61C194.5 291.61 184.5 374.61 210.5 377.61C236.5 380.61 255 365.11 255 365.11C255 365.11 274 336.11 267 336.11C263.61 336.11 254.4 334.59 246 335.11C237.04 335.67 228.98 338.19 229.5 335.61C230.5 330.61 245 267.11 217 260.11Z" />
	<path id="Layer" class="shp2" d="M215.5 240.61L211.5 238.61C211.5 238.61 195.5 241.61 192.5 266.61C189.5 291.61 179.5 374.61 205.5 377.61C231.5 380.61 266.5 373.61 266.5 373.61C266.5 373.61 273.5 335.61 266.5 335.61C259.5 335.61 223.5 340.61 224.5 335.61C225.5 330.61 243.5 247.61 215.5 240.61Z" />
	<path id="Layer" class="shp2" d="M338 353.11L349.03 336.21L356 364.11L338 372.11L338 353.11L338 353.11Z" />
	<path id="Layer" class="shp8" d="M111.47 112.11C96.54 112.11 84.47 100.04 84.47 85.11C84.47 70.18 96.54 58.11 111.47 58.11C126.4 58.11 138.47 70.18 138.47 85.11C138.47 100.04 126.4 112.11 111.47 112.11Z" />
	<path id="Layer" class="shp8" d="M79.47 286.11L143.47 286.11L143.47 350.11L79.47 350.11L79.47 286.11Z" />
	<path id="Layer" class="shp8" d="M372 0L388.2 28.06L404.4 56.11L372 56.11L339.6 56.11L355.8 28.06L372 0L372 0Z" />
	<path id="Layer" class="shp2" d="M654.24 168.23C653.85 180.2 650.93 189.79 645.49 197.01C640.05 204.23 633.58 207.84 626.09 207.84C619.99 207.84 614.64 204.31 610.05 197.24C605.45 190.18 603.16 179.31 603.16 164.64C603.16 161.4 603.23 158.31 603.39 155.37C603.54 152.44 603.73 149.66 603.97 147.03L608.02 108.92L581.26 108.92C576.63 157.11 572.83 185.78 569.85 194.93C566.88 204.08 561.84 208.65 554.74 208.65C553.95 208.63 553.16 208.54 552.38 208.38C551.61 208.21 550.85 207.97 550.12 207.67C549.38 207.36 548.68 206.98 548.02 206.55C547.36 206.11 546.74 205.61 546.17 205.06C545.5 204.47 544.9 203.81 544.38 203.09C543.86 202.37 543.42 201.59 543.07 200.77C542.72 199.95 542.47 199.1 542.3 198.22C542.14 197.34 542.08 196.45 542.11 195.56C542.11 192.01 544.91 187.05 550.51 180.68C556.11 174.31 559.22 168.5 559.84 163.25L566.78 108.92L555.55 108.92C554.76 108.93 553.97 108.98 553.19 109.08C552.41 109.18 551.63 109.32 550.87 109.51C550.1 109.7 549.35 109.94 548.61 110.22C547.88 110.5 547.16 110.82 546.46 111.18C545.81 111.48 545.19 111.81 544.59 112.19C543.99 112.56 543.41 112.97 542.86 113.41C542.31 113.85 541.78 114.33 541.29 114.84C540.8 115.35 540.34 115.89 539.91 116.45L534.93 123.87L530.88 123.87C534.66 112.13 539.31 103.31 544.84 97.4C550.36 91.49 556.71 88.54 563.89 88.54L652.38 88.54L652.38 108.92L622.5 108.92C621.57 118.19 620.86 127.46 620.36 136.72C619.85 145.99 619.6 155.29 619.6 164.64C619.6 170.97 621.07 176.11 624.01 180.04C626.94 183.98 630.61 185.95 635.01 185.95C637.71 185.95 640.55 184.85 643.52 182.65C644.23 182.16 644.88 181.59 645.46 180.95C646.04 180.32 646.55 179.63 646.99 178.89C647.42 178.14 647.77 177.36 648.04 176.54C648.3 175.72 648.48 174.88 648.56 174.02C648.79 172.32 648.97 170.99 649.08 170.02C649.2 169.06 649.26 168.46 649.26 168.23L654.24 168.23Z" />
	<path id="Layer" class="shp1" d="M654.24 168.23C653.85 180.2 650.93 189.79 645.49 197.01C640.05 204.23 633.58 207.84 626.09 207.84C619.99 207.84 614.64 204.31 610.05 197.24C605.45 190.18 603.16 179.31 603.16 164.64C603.16 161.4 603.23 158.31 603.39 155.37C603.54 152.44 603.73 149.66 603.97 147.03L608.02 108.92L581.26 108.92C576.63 157.11 572.83 185.78 569.85 194.93C566.88 204.08 561.84 208.65 554.74 208.65C553.95 208.63 553.16 208.54 552.38 208.38C551.61 208.21 550.85 207.97 550.12 207.67C549.38 207.36 548.68 206.98 548.02 206.55C547.36 206.11 546.74 205.61 546.17 205.06C545.5 204.47 544.9 203.81 544.38 203.09C543.86 202.37 543.42 201.59 543.07 200.77C542.72 199.95 542.47 199.1 542.3 198.22C542.14 197.34 542.08 196.45 542.11 195.56C542.11 192.01 544.91 187.05 550.51 180.68C556.11 174.31 559.22 168.5 559.84 163.25L566.78 108.92L555.55 108.92C554.76 108.93 553.97 108.98 553.19 109.08C552.41 109.18 551.63 109.32 550.87 109.51C550.1 109.7 549.35 109.94 548.61 110.22C547.88 110.5 547.16 110.82 546.46 111.18C545.81 111.48 545.19 111.81 544.59 112.19C543.99 112.56 543.41 112.97 542.86 113.41C542.31 113.85 541.78 114.33 541.29 114.84C540.8 115.35 540.34 115.89 539.91 116.45L534.93 123.87L530.88 123.87C534.66 112.13 539.31 103.31 544.84 97.4C550.36 91.49 556.71 88.54 563.89 88.54L652.38 88.54L652.38 108.92L622.5 108.92C621.57 118.19 620.86 127.46 620.36 136.72C619.85 145.99 619.6 155.29 619.6 164.64C619.6 170.97 621.07 176.11 624.01 180.04C626.94 183.98 630.61 185.95 635.01 185.95C637.71 185.95 640.55 184.85 643.52 182.65C644.23 182.16 644.88 181.59 645.46 180.95C646.04 180.32 646.55 179.63 646.99 178.89C647.42 178.14 647.77 177.36 648.04 176.54C648.3 175.72 648.48 174.88 648.56 174.02C648.79 172.32 648.97 170.99 649.08 170.02C649.2 169.06 649.26 168.46 649.26 168.23L654.24 168.23Z" />
	<path id="Layer" class="shp10" d="M654.24 164.61C653.85 176.58 650.93 186.17 645.49 193.39C640.05 200.61 633.58 204.22 626.09 204.22C619.99 204.22 614.64 200.69 610.05 193.63C605.45 186.56 603.16 175.69 603.16 161.02C603.16 157.78 603.23 154.69 603.39 151.75C603.54 148.82 603.73 146.04 603.97 143.41L608.02 105.31L581.26 105.31C576.63 153.49 572.83 182.16 569.85 191.31C566.88 200.46 561.84 205.03 554.74 205.03C553.95 205.02 553.16 204.92 552.38 204.76C551.61 204.59 550.85 204.35 550.12 204.05C549.38 203.74 548.68 203.37 548.02 202.93C547.36 202.49 546.74 202 546.17 201.44C545.5 200.85 544.9 200.19 544.38 199.47C543.86 198.75 543.42 197.97 543.07 197.15C542.72 196.33 542.47 195.48 542.3 194.6C542.14 193.73 542.08 192.84 542.11 191.95C542.11 188.4 544.91 183.43 550.51 177.06C556.11 170.69 559.22 164.88 559.84 159.63L566.78 105.31L555.55 105.31C554.76 105.31 553.97 105.36 553.19 105.46C552.41 105.56 551.63 105.7 550.87 105.89C550.1 106.08 549.35 106.32 548.61 106.6C547.88 106.88 547.16 107.2 546.46 107.56C545.81 107.86 545.19 108.19 544.59 108.57C543.99 108.94 543.41 109.35 542.86 109.79C542.31 110.24 541.78 110.71 541.29 111.22C540.8 111.73 540.34 112.27 539.91 112.83L534.93 120.25L530.88 120.25C534.66 108.51 539.31 99.69 544.84 93.78C550.36 87.87 556.71 84.92 563.89 84.92L652.38 84.92L652.38 105.31L622.5 105.31C621.57 114.57 620.86 123.84 620.36 133.1C619.85 142.37 619.6 151.68 619.6 161.02C619.6 167.35 621.07 172.49 624.01 176.42C626.94 180.36 630.61 182.33 635.01 182.33C637.71 182.33 640.55 181.23 643.52 179.03C644.23 178.54 644.88 177.97 645.46 177.34C646.04 176.7 646.55 176.01 646.99 175.27C647.42 174.52 647.77 173.74 648.04 172.92C648.3 172.1 648.48 171.26 648.56 170.4C648.79 168.7 648.97 167.37 649.08 166.41C649.2 165.44 649.26 164.84 649.26 164.61L654.24 164.61Z" />
</svg>